<mxfile host="drawio-plugin" modified="2022-05-31T23:38:08.298Z" agent="5.0 (Macintosh; Intel Mac OS X 11_6_5) AppleWebKit/537.36 (KHTML, like Gecko) Chrome/89.0.4389.114 Safari/537.36" etag="GsHcGW5OT93B1EX7xPyt" version="15.5.4" type="embed"><diagram id="xh-QA73TJ0Xt4MNs4ezH" name="Page-1"><mxGraphModel dx="882" dy="707" grid="1" gridSize="10" guides="1" tooltips="1" connect="1" arrows="1" fold="1" page="1" pageScale="1" pageWidth="850" pageHeight="1100" math="0" shadow="0"><root><mxCell id="0"/><mxCell id="1" parent="0"/><mxCell id="VXc8HNXznFj73oHEkkWL-21" style="edgeStyle=orthogonalEdgeStyle;curved=1;rounded=0;orthogonalLoop=1;jettySize=auto;html=1;exitX=0.5;exitY=1;exitDx=0;exitDy=0;entryX=0;entryY=0.5;entryDx=0;entryDy=0;" parent="1" target="VXc8HNXznFj73oHEkkWL-4" edge="1"><mxGeometry relative="1" as="geometry"><mxPoint x="50" y="160" as="sourcePoint"/></mxGeometry></mxCell><mxCell id="VXc8HNXznFj73oHEkkWL-22" style="edgeStyle=orthogonalEdgeStyle;curved=1;rounded=0;orthogonalLoop=1;jettySize=auto;html=1;exitX=1;exitY=0.5;exitDx=0;exitDy=0;entryX=0.5;entryY=1;entryDx=0;entryDy=0;" parent="1" source="VXc8HNXznFj73oHEkkWL-4" target="VXc8HNXznFj73oHEkkWL-5" edge="1"><mxGeometry relative="1" as="geometry"/></mxCell><mxCell id="VXc8HNXznFj73oHEkkWL-4" value="NPO capabilities" style="whiteSpace=wrap;html=1;aspect=fixed;labelBackgroundColor=#FF99FF;fillColor=#FF99FF;fontColor=#000000;" parent="1" vertex="1"><mxGeometry x="120" y="180" width="80" height="80" as="geometry"/></mxCell><mxCell id="VXc8HNXznFj73oHEkkWL-23" style="edgeStyle=orthogonalEdgeStyle;curved=1;rounded=0;orthogonalLoop=1;jettySize=auto;html=1;exitX=1;exitY=0.5;exitDx=0;exitDy=0;entryX=0;entryY=0.5;entryDx=0;entryDy=0;" parent="1" source="VXc8HNXznFj73oHEkkWL-5" target="VXc8HNXznFj73oHEkkWL-6" edge="1"><mxGeometry relative="1" as="geometry"/></mxCell><mxCell id="VXc8HNXznFj73oHEkkWL-5" value="NPO capabilities list collated" style="whiteSpace=wrap;html=1;aspect=fixed;labelBackgroundColor=#FF9933;fillColor=#FF9933;fontColor=#000000;" parent="1" vertex="1"><mxGeometry x="210" y="70" width="80" height="80" as="geometry"/></mxCell><mxCell id="VXc8HNXznFj73oHEkkWL-29" style="edgeStyle=orthogonalEdgeStyle;curved=1;rounded=0;orthogonalLoop=1;jettySize=auto;html=1;exitX=0.5;exitY=0;exitDx=0;exitDy=0;entryX=0;entryY=0.413;entryDx=0;entryDy=0;entryPerimeter=0;" parent="1" source="VXc8HNXznFj73oHEkkWL-6" target="VXc8HNXznFj73oHEkkWL-10" edge="1"><mxGeometry relative="1" as="geometry"/></mxCell><mxCell id="VXc8HNXznFj73oHEkkWL-30" style="edgeStyle=orthogonalEdgeStyle;curved=1;rounded=0;orthogonalLoop=1;jettySize=auto;html=1;exitX=0.5;exitY=1;exitDx=0;exitDy=0;entryX=0;entryY=0.5;entryDx=0;entryDy=0;" parent="1" source="VXc8HNXznFj73oHEkkWL-6" target="VXc8HNXznFj73oHEkkWL-11" edge="1"><mxGeometry relative="1" as="geometry"/></mxCell><mxCell id="VXc8HNXznFj73oHEkkWL-6" value="Capability matching" style="whiteSpace=wrap;html=1;aspect=fixed;labelBackgroundColor=#FF99FF;fillColor=#FF99FF;fontColor=#000000;" parent="1" vertex="1"><mxGeometry x="310" y="180" width="80" height="80" as="geometry"/></mxCell><mxCell id="VXc8HNXznFj73oHEkkWL-24" style="edgeStyle=orthogonalEdgeStyle;curved=1;rounded=0;orthogonalLoop=1;jettySize=auto;html=1;exitX=0.5;exitY=0;exitDx=0;exitDy=0;" parent="1" source="VXc8HNXznFj73oHEkkWL-7" edge="1"><mxGeometry relative="1" as="geometry"><mxPoint x="310" y="220" as="targetPoint"/></mxGeometry></mxCell><mxCell id="VXc8HNXznFj73oHEkkWL-7" value="Candidate needs updated" style="whiteSpace=wrap;html=1;aspect=fixed;labelBackgroundColor=#FF9933;fillColor=#FF9933;fontColor=#000000;" parent="1" vertex="1"><mxGeometry x="210" y="290" width="80" height="80" as="geometry"/></mxCell><mxCell id="VXc8HNXznFj73oHEkkWL-25" style="edgeStyle=orthogonalEdgeStyle;curved=1;rounded=0;orthogonalLoop=1;jettySize=auto;html=1;exitX=0.5;exitY=1;exitDx=0;exitDy=0;entryX=0;entryY=0.5;entryDx=0;entryDy=0;" parent="1" target="VXc8HNXznFj73oHEkkWL-9" edge="1"><mxGeometry relative="1" as="geometry"><mxPoint x="50" y="370" as="sourcePoint"/></mxGeometry></mxCell><mxCell id="VXc8HNXznFj73oHEkkWL-27" style="edgeStyle=orthogonalEdgeStyle;curved=1;rounded=0;orthogonalLoop=1;jettySize=auto;html=1;exitX=1;exitY=0.5;exitDx=0;exitDy=0;entryX=0.5;entryY=1;entryDx=0;entryDy=0;" parent="1" source="VXc8HNXznFj73oHEkkWL-9" target="VXc8HNXznFj73oHEkkWL-7" edge="1"><mxGeometry relative="1" as="geometry"/></mxCell><mxCell id="VXc8HNXznFj73oHEkkWL-9" value="Candidate needs" style="whiteSpace=wrap;html=1;aspect=fixed;labelBackgroundColor=#FF99FF;fillColor=#FF99FF;fontColor=#000000;" parent="1" vertex="1"><mxGeometry x="110" y="400" width="80" height="80" as="geometry"/></mxCell><mxCell id="VXc8HNXznFj73oHEkkWL-39" style="edgeStyle=orthogonalEdgeStyle;curved=1;rounded=0;orthogonalLoop=1;jettySize=auto;html=1;exitX=1;exitY=0.5;exitDx=0;exitDy=0;entryX=0.5;entryY=0;entryDx=0;entryDy=0;" parent="1" source="VXc8HNXznFj73oHEkkWL-10" target="VXc8HNXznFj73oHEkkWL-12" edge="1"><mxGeometry relative="1" as="geometry"/></mxCell><mxCell id="VXc8HNXznFj73oHEkkWL-10" value="Candidates-NPOs matched" style="whiteSpace=wrap;html=1;aspect=fixed;labelBackgroundColor=#FF9933;fillColor=#FF9933;fontColor=#000000;" parent="1" vertex="1"><mxGeometry x="390" y="60" width="80" height="80" as="geometry"/></mxCell><mxCell id="VXc8HNXznFj73oHEkkWL-37" style="edgeStyle=orthogonalEdgeStyle;curved=1;rounded=0;orthogonalLoop=1;jettySize=auto;html=1;exitX=1;exitY=0.5;exitDx=0;exitDy=0;entryX=0.5;entryY=1;entryDx=0;entryDy=0;" parent="1" source="VXc8HNXznFj73oHEkkWL-11" target="VXc8HNXznFj73oHEkkWL-12" edge="1"><mxGeometry relative="1" as="geometry"/></mxCell><mxCell id="VXc8HNXznFj73oHEkkWL-11" value="Candidate needs unmatched" style="whiteSpace=wrap;html=1;aspect=fixed;labelBackgroundColor=#FF9933;fillColor=#FF9933;fontColor=#000000;" parent="1" vertex="1"><mxGeometry x="390" y="300" width="80" height="80" as="geometry"/></mxCell><mxCell id="VXc8HNXznFj73oHEkkWL-47" style="edgeStyle=orthogonalEdgeStyle;curved=1;rounded=0;orthogonalLoop=1;jettySize=auto;html=1;exitX=0.5;exitY=1;exitDx=0;exitDy=0;entryX=0;entryY=0.5;entryDx=0;entryDy=0;" parent="1" source="VXc8HNXznFj73oHEkkWL-12" target="VXc8HNXznFj73oHEkkWL-40" edge="1"><mxGeometry relative="1" as="geometry"/></mxCell><mxCell id="VXc8HNXznFj73oHEkkWL-69" style="edgeStyle=orthogonalEdgeStyle;curved=1;rounded=0;orthogonalLoop=1;jettySize=auto;html=1;entryX=0;entryY=0.5;entryDx=0;entryDy=0;" parent="1" source="VXc8HNXznFj73oHEkkWL-12" target="VXc8HNXznFj73oHEkkWL-67" edge="1"><mxGeometry relative="1" as="geometry"/></mxCell><mxCell id="VXc8HNXznFj73oHEkkWL-12" value="Candidate tracking" style="whiteSpace=wrap;html=1;aspect=fixed;labelBackgroundColor=#FF99FF;fillColor=#FF99FF;fontColor=#000000;" parent="1" vertex="1"><mxGeometry x="470" y="180" width="80" height="80" as="geometry"/></mxCell><mxCell id="VXc8HNXznFj73oHEkkWL-34" style="edgeStyle=orthogonalEdgeStyle;curved=1;rounded=0;orthogonalLoop=1;jettySize=auto;html=1;exitX=0;exitY=0.5;exitDx=0;exitDy=0;" parent="1" source="VXc8HNXznFj73oHEkkWL-13" target="VXc8HNXznFj73oHEkkWL-12" edge="1"><mxGeometry relative="1" as="geometry"/></mxCell><mxCell id="VXc8HNXznFj73oHEkkWL-13" value="Update candidate progress" style="whiteSpace=wrap;html=1;aspect=fixed;labelBackgroundColor=#99FFFF;fillColor=#99FFFF;fontColor=#000000;" parent="1" vertex="1"><mxGeometry x="610" y="180" width="80" height="80" as="geometry"/></mxCell><mxCell id="VXc8HNXznFj73oHEkkWL-32" style="edgeStyle=orthogonalEdgeStyle;curved=1;rounded=0;orthogonalLoop=1;jettySize=auto;html=1;exitX=0;exitY=0.5;exitDx=0;exitDy=0;entryX=1;entryY=0.5;entryDx=0;entryDy=0;" parent="1" source="VXc8HNXznFj73oHEkkWL-14" target="VXc8HNXznFj73oHEkkWL-13" edge="1"><mxGeometry relative="1" as="geometry"/></mxCell><mxCell id="VXc8HNXznFj73oHEkkWL-14" value="NPO" style="whiteSpace=wrap;html=1;aspect=fixed;labelBackgroundColor=#FF66B3;fillColor=#FF66B3;fontColor=#000000;" parent="1" vertex="1"><mxGeometry x="740" y="180" width="80" height="80" as="geometry"/></mxCell><mxCell id="VXc8HNXznFj73oHEkkWL-40" value="Candidate progress updated" style="whiteSpace=wrap;html=1;aspect=fixed;labelBackgroundColor=#FF9933;fillColor=#FF9933;fontColor=#000000;" parent="1" vertex="1"><mxGeometry x="570" y="300" width="80" height="80" as="geometry"/></mxCell><mxCell id="VXc8HNXznFj73oHEkkWL-56" value="NPO,&lt;br&gt;update&lt;br&gt;capability&lt;br&gt;list" style="shape=umlActor;verticalLabelPosition=bottom;verticalAlign=top;html=1;outlineConnect=0;labelBackgroundColor=#FFFF99;fillColor=#FFFF99;fontColor=#000000;" parent="1" vertex="1"><mxGeometry x="20" y="120" width="30" height="60" as="geometry"/></mxCell><mxCell id="VXc8HNXznFj73oHEkkWL-58" value="Candidate,&lt;br&gt;update&lt;br&gt;needs&lt;br&gt;list" style="shape=umlActor;verticalLabelPosition=bottom;verticalAlign=top;html=1;outlineConnect=0;labelBackgroundColor=#FFFF99;fillColor=#FFFF99;fontColor=#000000;" parent="1" vertex="1"><mxGeometry x="20" y="330" width="30" height="60" as="geometry"/></mxCell><mxCell id="VXc8HNXznFj73oHEkkWL-66" style="edgeStyle=orthogonalEdgeStyle;curved=1;rounded=0;orthogonalLoop=1;jettySize=auto;html=1;exitX=0;exitY=0.3333333333333333;exitDx=0;exitDy=0;exitPerimeter=0;entryX=0.5;entryY=0;entryDx=0;entryDy=0;" parent="1" source="VXc8HNXznFj73oHEkkWL-61" target="VXc8HNXznFj73oHEkkWL-12" edge="1"><mxGeometry relative="1" as="geometry"/></mxCell><mxCell id="VXc8HNXznFj73oHEkkWL-61" value="Admin,&lt;br&gt;generate&lt;br&gt;candidate&lt;br&gt;progress&lt;br&gt;report" style="shape=umlActor;verticalLabelPosition=bottom;verticalAlign=top;html=1;outlineConnect=0;labelBackgroundColor=#FFFF99;fillColor=#FFFF99;fontColor=#000000;" parent="1" vertex="1"><mxGeometry x="570" width="30" height="60" as="geometry"/></mxCell><mxCell id="VXc8HNXznFj73oHEkkWL-67" value="Candidate progress report" style="whiteSpace=wrap;html=1;aspect=fixed;labelBackgroundColor=#CCFF99;fillColor=#CCFF99;fontColor=#000000;" parent="1" vertex="1"><mxGeometry x="650" y="70" width="80" height="80" as="geometry"/></mxCell></root></mxGraphModel></diagram></mxfile>